<svg xmlns="http://www.w3.org/2000/svg" viewBox="0 0 48 48" role="img" aria-label="GitHub">
  <circle cx="24" cy="24" r="21" fill="#181717"/>
  <path fill="#fff" d="M24 10a14.3 14.3 0 0 0-4.5 27.8c.7.1 1-.3 1-.7v-2.8c-4 .9-4.9-1.7-4.9-1.7-.7-1.7-1.6-2.1-1.6-2.1-1.3-.9.1-.9.1-.9 1.5.1 2.2 1.5 2.2 1.5 1.3 2.2 3.4 1.6 4.2 1.2.1-.9.5-1.6.9-2-3.2-.4-6.6-1.6-6.6-7.1 0-1.6.6-2.9 1.5-3.9-.2-.4-.7-1.9.1-3.9 0 0 1.2-.4 3.9 1.5a13.5 13.5 0 0 1 7.2 0c2.7-1.9 3.9-1.5 3.9-1.5.8 2 .3 3.5.1 3.9.9 1 1.5 2.3 1.5 3.9 0 5.5-3.4 6.7-6.6 7.1.5.4 1 1.3 1 2.7v4c0 .4.3.8 1 .7A14.3 14.3 0 0 0 24 10z"/>
</svg>
